<svg width="1024" height="1024" viewBox="0 0 1024 1024" fill="none" xmlns="http://www.w3.org/2000/svg">
    <g clip-path="url(#clip0_1338_446)">
        <mask id="mask0_1338_446" style="mask-type:alpha" maskUnits="userSpaceOnUse" x="0" y="0" width="1024" height="1024">
            <circle cx="512" cy="512" r="512" fill="#F4D48E"/>
        </mask>
        <g mask="url(#mask0_1338_446)">
            <circle cx="512" cy="512" r="512" fill="#DDC38A"/>
            <path d="M719.5 289C617.974 241.687 526 152.5 320.5 152.5C115 152.5 3.5 248 -8.5 293C-20.5 338 -8.16667 391.5 -13.5 390.5L-33 706.5H1145V499C1123 465.833 1043.5 399 1007 391.5C970.5 384 822.5 337 719.5 289Z" fill="#D99876"/>
            <path d="M561.5 514.5C488.5 476.5 341 402 214.5 402C88 402 30.3 440.7 -8.5 461.5C-47.3 482.3 -54 485.167 -59 486.5L-68.5 808L563.5 814.5L561.5 514.5Z" fill="#E27880"/>
            <path d="M1020.5 551C994 521.166 893.7 454.1 662.5 452.5C539.24 451.647 363 505.57 259 577.5C163.938 643.248 87.5 682.5 31.5 688.5L-111.5 882L1195.5 887L1020.5 551Z" fill="#B96896"/>
            <path d="M819.5 856C638 856 518 772.5 359 772.5C200 772.5 100 860.5 65 869L-94 949.5V1041.5L1177.5 1025.5L1005.5 750.5C1001 770.5 967.403 856 819.5 856Z" fill="#8263A3"/>
        </g>
        <path d="M512 0C794.77 0 1024 229.23 1024 512C1024 794.77 794.77 1024 512 1024C229.23 1024 0 794.77 0 512C0 229.23 229.23 0 512 0ZM512 54C259.054 54 54 259.054 54 512C54 764.946 259.054 970 512 970C764.946 970 970 764.946 970 512C970 259.054 764.946 54 512 54Z" fill="white" fill-opacity="0.37"/>
        <g filter="url(#filter0_d_1338_446)">
            <path d="M487.116 150.003C501.809 138.783 522.192 138.783 536.884 150.003L557.075 165.422L497.732 210.523C496.638 211.141 495.578 211.841 494.559 212.623L240.562 407.619C231.616 414.487 227.882 426.191 231.197 436.971L328.802 754.394C332.286 765.726 342.755 773.458 354.61 773.458H667.391C679.245 773.458 689.713 765.725 693.198 754.394L782.37 464.396L814.835 362.26L843.057 383.811C856.716 394.242 862.42 412.086 857.344 428.506L739.587 809.435C734.277 826.612 718.396 838.326 700.416 838.326H323.584C305.605 838.326 289.723 826.612 284.413 809.435L166.657 428.506C161.581 412.086 167.284 394.242 180.944 383.811L487.116 150.003Z" fill="white"/>
            <path fill-rule="evenodd" clip-rule="evenodd" d="M500.614 284.264C508.511 278.209 519.489 278.209 527.386 284.264L716.797 429.49C724.096 435.086 727.143 444.632 724.437 453.422L651.62 689.924C648.779 699.153 640.251 705.451 630.594 705.451H397.406C387.75 705.451 379.222 699.153 376.38 689.924L363.934 649.5H425.676C426.394 649.647 427.134 649.724 427.888 649.724H596.113C600.963 649.724 605.242 646.546 606.643 641.903L659.141 467.982C660.452 463.638 658.961 458.935 655.387 456.139L518.777 349.3C514.795 346.186 509.205 346.186 505.224 349.3L379.925 447.292L316.152 494.307L303.564 453.422C300.857 444.632 303.905 435.086 311.203 429.49L500.614 284.264Z" fill="white"/>
        </g>
        <g filter="url(#filter1_i_1338_446)">
            <path fill-rule="evenodd" clip-rule="evenodd" d="M512 970C764.946 970 970 764.946 970 512C970 259.054 764.946 54 512 54C259.054 54 54 259.054 54 512C54 764.946 259.054 970 512 970ZM536.884 150.002L557.076 165.422L497.739 210.518C496.643 211.137 495.579 211.839 494.558 212.623L240.562 407.619C231.616 414.487 227.881 426.191 231.196 436.971L328.802 754.394C332.287 765.725 342.755 773.458 354.61 773.458H667.39C679.245 773.458 689.713 765.725 693.198 754.394L782.374 464.385L814.835 362.26L843.057 383.812C856.716 394.243 862.42 412.086 857.344 428.506L739.587 809.435C734.277 826.612 718.395 838.326 700.416 838.326H323.584C305.604 838.326 289.723 826.612 284.413 809.435L166.656 428.506C161.58 412.086 167.284 394.243 180.943 383.812L487.116 150.002C501.808 138.783 522.192 138.783 536.884 150.002ZM527.386 284.264C519.489 278.209 508.511 278.209 500.614 284.264L311.203 429.49C303.904 435.086 300.857 444.632 303.563 453.422L316.151 494.307L379.925 447.292L505.223 349.3C509.205 346.186 514.795 346.186 518.776 349.3L655.386 456.139C658.961 458.935 660.452 463.638 659.141 467.982L606.643 641.903C605.241 646.546 600.963 649.724 596.112 649.724H427.888C427.134 649.724 426.393 649.647 425.676 649.5H363.934L376.38 689.924C379.222 699.153 387.749 705.451 397.406 705.451H630.594C640.251 705.451 648.778 699.153 651.62 689.924L724.437 453.422C727.143 444.632 724.096 435.086 716.797 429.49L527.386 284.264Z" fill="black" fill-opacity="0.2" style="mix-blend-mode:soft-light"/>
        </g>
    </g>
    <defs>
        <filter id="filter0_d_1338_446" x="114.825" y="91.5881" width="794.35" height="796.738" filterUnits="userSpaceOnUse" color-interpolation-filters="sRGB">
            <feFlood flood-opacity="0" result="BackgroundImageFix"/>
            <feColorMatrix in="SourceAlpha" type="matrix" values="0 0 0 0 0 0 0 0 0 0 0 0 0 0 0 0 0 0 127 0" result="hardAlpha"/>
            <feOffset/>
            <feGaussianBlur stdDeviation="25"/>
            <feComposite in2="hardAlpha" operator="out"/>
            <feColorMatrix type="matrix" values="0 0 0 0 0 0 0 0 0 0 0 0 0 0 0 0 0 0 0.25 0"/>
            <feBlend mode="normal" in2="BackgroundImageFix" result="effect1_dropShadow_1338_446"/>
            <feBlend mode="normal" in="SourceGraphic" in2="effect1_dropShadow_1338_446" result="shape"/>
        </filter>
        <filter id="filter1_i_1338_446" x="54" y="54" width="916" height="934" filterUnits="userSpaceOnUse" color-interpolation-filters="sRGB">
            <feFlood flood-opacity="0" result="BackgroundImageFix"/>
            <feBlend mode="normal" in="SourceGraphic" in2="BackgroundImageFix" result="shape"/>
            <feColorMatrix in="SourceAlpha" type="matrix" values="0 0 0 0 0 0 0 0 0 0 0 0 0 0 0 0 0 0 127 0" result="hardAlpha"/>
            <feOffset dy="18"/>
            <feGaussianBlur stdDeviation="25"/>
            <feComposite in2="hardAlpha" operator="arithmetic" k2="-1" k3="1"/>
            <feColorMatrix type="matrix" values="0 0 0 0 0 0 0 0 0 0 0 0 0 0 0 0 0 0 0.5 0"/>
            <feBlend mode="normal" in2="shape" result="effect1_innerShadow_1338_446"/>
        </filter>
        <clipPath id="clip0_1338_446">
            <rect width="1024" height="1024" fill="white"/>
        </clipPath>
    </defs>
</svg>
